<mxfile host="app.diagrams.net" modified="2020-11-05T20:21:58.976Z" agent="5.0 (X11; Linux x86_64) AppleWebKit/537.36 (KHTML, like Gecko) Chrome/86.0.4240.75 Safari/537.36" etag="dB4v_ROmE9bosnbEkDJ-" version="13.6.10" type="github">
  <diagram id="Hoew5awj_CC-Mgw2gWNJ" name="Page-1">
    <mxGraphModel dx="1422" dy="661" grid="1" gridSize="10" guides="1" tooltips="1" connect="1" arrows="1" fold="1" page="1" pageScale="1" pageWidth="827" pageHeight="1169" math="0" shadow="0">
      <root>
        <mxCell id="0" />
        <mxCell id="1" parent="0" />
        <mxCell id="FqyA_ixjrZ2a1JIf1fLV-5" value="" style="group" vertex="1" connectable="0" parent="1">
          <mxGeometry x="204" y="200" width="60" height="130" as="geometry" />
        </mxCell>
        <mxCell id="FqyA_ixjrZ2a1JIf1fLV-2" value="" style="html=1;aspect=fixed;strokeColor=none;shadow=0;align=center;verticalAlign=top;fillColor=#3B8DF1;shape=mxgraph.gcp2.repository" vertex="1" parent="FqyA_ixjrZ2a1JIf1fLV-5">
          <mxGeometry width="60" height="100" as="geometry" />
        </mxCell>
        <mxCell id="FqyA_ixjrZ2a1JIf1fLV-3" value="Migrations" style="text;html=1;strokeColor=none;fillColor=none;align=center;verticalAlign=middle;whiteSpace=wrap;rounded=0;" vertex="1" parent="FqyA_ixjrZ2a1JIf1fLV-5">
          <mxGeometry x="7" y="110" width="46" height="20" as="geometry" />
        </mxCell>
        <mxCell id="FqyA_ixjrZ2a1JIf1fLV-6" value="" style="group" vertex="1" connectable="0" parent="1">
          <mxGeometry x="330" y="200" width="60" height="130" as="geometry" />
        </mxCell>
        <mxCell id="FqyA_ixjrZ2a1JIf1fLV-7" value="" style="html=1;aspect=fixed;strokeColor=none;shadow=0;align=center;verticalAlign=top;fillColor=#3B8DF1;shape=mxgraph.gcp2.repository" vertex="1" parent="FqyA_ixjrZ2a1JIf1fLV-6">
          <mxGeometry width="60" height="100" as="geometry" />
        </mxCell>
        <mxCell id="FqyA_ixjrZ2a1JIf1fLV-8" value="Kong-Postman-Collection" style="text;html=1;strokeColor=none;fillColor=none;align=center;verticalAlign=middle;whiteSpace=wrap;rounded=0;" vertex="1" parent="FqyA_ixjrZ2a1JIf1fLV-6">
          <mxGeometry x="7" y="110" width="46" height="20" as="geometry" />
        </mxCell>
        <mxCell id="FqyA_ixjrZ2a1JIf1fLV-9" value="" style="group" vertex="1" connectable="0" parent="1">
          <mxGeometry x="80" y="200" width="60" height="130" as="geometry" />
        </mxCell>
        <mxCell id="FqyA_ixjrZ2a1JIf1fLV-10" value="" style="html=1;aspect=fixed;strokeColor=none;shadow=0;align=center;verticalAlign=top;fillColor=#3B8DF1;shape=mxgraph.gcp2.repository" vertex="1" parent="FqyA_ixjrZ2a1JIf1fLV-9">
          <mxGeometry width="60" height="100" as="geometry" />
        </mxCell>
        <mxCell id="FqyA_ixjrZ2a1JIf1fLV-11" value="Kong-Deployment" style="text;html=1;strokeColor=none;fillColor=none;align=center;verticalAlign=middle;whiteSpace=wrap;rounded=0;" vertex="1" parent="FqyA_ixjrZ2a1JIf1fLV-9">
          <mxGeometry x="7" y="110" width="46" height="20" as="geometry" />
        </mxCell>
        <mxCell id="FqyA_ixjrZ2a1JIf1fLV-12" value="" style="group" vertex="1" connectable="0" parent="1">
          <mxGeometry x="450" y="200" width="60" height="130" as="geometry" />
        </mxCell>
        <mxCell id="FqyA_ixjrZ2a1JIf1fLV-13" value="" style="html=1;aspect=fixed;strokeColor=none;shadow=0;align=center;verticalAlign=top;fillColor=#3B8DF1;shape=mxgraph.gcp2.repository" vertex="1" parent="FqyA_ixjrZ2a1JIf1fLV-12">
          <mxGeometry width="60" height="100" as="geometry" />
        </mxCell>
        <mxCell id="FqyA_ixjrZ2a1JIf1fLV-14" value="Kong-migrations-testing" style="text;html=1;strokeColor=none;fillColor=none;align=center;verticalAlign=middle;whiteSpace=wrap;rounded=0;" vertex="1" parent="FqyA_ixjrZ2a1JIf1fLV-12">
          <mxGeometry x="7" y="110" width="46" height="20" as="geometry" />
        </mxCell>
        <mxCell id="FqyA_ixjrZ2a1JIf1fLV-15" value="" style="group" vertex="1" connectable="0" parent="1">
          <mxGeometry x="570" y="200" width="60" height="130" as="geometry" />
        </mxCell>
        <mxCell id="FqyA_ixjrZ2a1JIf1fLV-16" value="" style="html=1;aspect=fixed;strokeColor=none;shadow=0;align=center;verticalAlign=top;fillColor=#3B8DF1;shape=mxgraph.gcp2.repository" vertex="1" parent="FqyA_ixjrZ2a1JIf1fLV-15">
          <mxGeometry width="60" height="100" as="geometry" />
        </mxCell>
        <mxCell id="FqyA_ixjrZ2a1JIf1fLV-17" value="Management" style="text;html=1;strokeColor=none;fillColor=none;align=center;verticalAlign=middle;whiteSpace=wrap;rounded=0;" vertex="1" parent="FqyA_ixjrZ2a1JIf1fLV-15">
          <mxGeometry x="7" y="110" width="46" height="20" as="geometry" />
        </mxCell>
        <mxCell id="FqyA_ixjrZ2a1JIf1fLV-18" value="" style="group" vertex="1" connectable="0" parent="1">
          <mxGeometry x="204" y="400" width="60" height="130" as="geometry" />
        </mxCell>
        <mxCell id="FqyA_ixjrZ2a1JIf1fLV-19" value="" style="html=1;aspect=fixed;strokeColor=none;shadow=0;align=center;verticalAlign=top;fillColor=#3B8DF1;shape=mxgraph.gcp2.repository" vertex="1" parent="FqyA_ixjrZ2a1JIf1fLV-18">
          <mxGeometry width="60" height="100" as="geometry" />
        </mxCell>
        <mxCell id="FqyA_ixjrZ2a1JIf1fLV-20" value="Migrator" style="text;html=1;strokeColor=none;fillColor=none;align=center;verticalAlign=middle;whiteSpace=wrap;rounded=0;" vertex="1" parent="FqyA_ixjrZ2a1JIf1fLV-18">
          <mxGeometry x="7" y="110" width="46" height="20" as="geometry" />
        </mxCell>
        <mxCell id="FqyA_ixjrZ2a1JIf1fLV-24" style="edgeStyle=orthogonalEdgeStyle;rounded=0;orthogonalLoop=1;jettySize=auto;html=1;entryX=0;entryY=0.66;entryDx=0;entryDy=0;entryPerimeter=0;" edge="1" parent="1" source="FqyA_ixjrZ2a1JIf1fLV-2" target="FqyA_ixjrZ2a1JIf1fLV-7">
          <mxGeometry relative="1" as="geometry" />
        </mxCell>
        <mxCell id="FqyA_ixjrZ2a1JIf1fLV-25" style="edgeStyle=orthogonalEdgeStyle;rounded=0;orthogonalLoop=1;jettySize=auto;html=1;" edge="1" parent="1" source="FqyA_ixjrZ2a1JIf1fLV-10">
          <mxGeometry relative="1" as="geometry">
            <mxPoint x="200" y="260" as="targetPoint" />
          </mxGeometry>
        </mxCell>
        <mxCell id="FqyA_ixjrZ2a1JIf1fLV-26" style="edgeStyle=orthogonalEdgeStyle;rounded=0;orthogonalLoop=1;jettySize=auto;html=1;entryX=-0.083;entryY=0.71;entryDx=0;entryDy=0;entryPerimeter=0;" edge="1" parent="1" source="FqyA_ixjrZ2a1JIf1fLV-7" target="FqyA_ixjrZ2a1JIf1fLV-13">
          <mxGeometry relative="1" as="geometry" />
        </mxCell>
        <mxCell id="FqyA_ixjrZ2a1JIf1fLV-27" style="edgeStyle=orthogonalEdgeStyle;rounded=0;orthogonalLoop=1;jettySize=auto;html=1;entryX=0.033;entryY=0.59;entryDx=0;entryDy=0;entryPerimeter=0;" edge="1" parent="1" source="FqyA_ixjrZ2a1JIf1fLV-13" target="FqyA_ixjrZ2a1JIf1fLV-16">
          <mxGeometry relative="1" as="geometry" />
        </mxCell>
        <mxCell id="FqyA_ixjrZ2a1JIf1fLV-30" style="edgeStyle=orthogonalEdgeStyle;rounded=0;orthogonalLoop=1;jettySize=auto;html=1;entryX=0.5;entryY=1;entryDx=0;entryDy=0;strokeColor=#FF0000;" edge="1" parent="1" source="FqyA_ixjrZ2a1JIf1fLV-19" target="FqyA_ixjrZ2a1JIf1fLV-3">
          <mxGeometry relative="1" as="geometry" />
        </mxCell>
        <mxCell id="FqyA_ixjrZ2a1JIf1fLV-33" value="" style="group" vertex="1" connectable="0" parent="1">
          <mxGeometry x="286" y="40" width="80" height="110" as="geometry" />
        </mxCell>
        <mxCell id="FqyA_ixjrZ2a1JIf1fLV-1" value="" style="shape=image;html=1;verticalAlign=top;verticalLabelPosition=bottom;labelBackgroundColor=#ffffff;imageAspect=0;aspect=fixed;image=https://cdn4.iconfinder.com/data/icons/logos-and-brands/512/144_Gitlab_logo_logos-128.png" vertex="1" parent="FqyA_ixjrZ2a1JIf1fLV-33">
          <mxGeometry width="80" height="80" as="geometry" />
        </mxCell>
        <mxCell id="FqyA_ixjrZ2a1JIf1fLV-28" value="Gitlab Cencosud" style="text;html=1;strokeColor=none;fillColor=none;align=center;verticalAlign=middle;whiteSpace=wrap;rounded=0;" vertex="1" parent="FqyA_ixjrZ2a1JIf1fLV-33">
          <mxGeometry x="20" y="90" width="40" height="20" as="geometry" />
        </mxCell>
        <mxCell id="FqyA_ixjrZ2a1JIf1fLV-34" value="0" style="text;html=1;strokeColor=none;fillColor=none;align=center;verticalAlign=middle;whiteSpace=wrap;rounded=0;" vertex="1" parent="1">
          <mxGeometry x="164" y="400" width="40" height="20" as="geometry" />
        </mxCell>
        <mxCell id="FqyA_ixjrZ2a1JIf1fLV-36" value="1" style="text;html=1;strokeColor=none;fillColor=none;align=center;verticalAlign=middle;whiteSpace=wrap;rounded=0;" vertex="1" parent="1">
          <mxGeometry x="40" y="210" width="40" height="20" as="geometry" />
        </mxCell>
        <mxCell id="FqyA_ixjrZ2a1JIf1fLV-37" value="2" style="text;html=1;strokeColor=none;fillColor=none;align=center;verticalAlign=middle;whiteSpace=wrap;rounded=0;" vertex="1" parent="1">
          <mxGeometry x="170" y="200" width="40" height="20" as="geometry" />
        </mxCell>
        <mxCell id="FqyA_ixjrZ2a1JIf1fLV-38" value="4" style="text;html=1;strokeColor=none;fillColor=none;align=center;verticalAlign=middle;whiteSpace=wrap;rounded=0;" vertex="1" parent="1">
          <mxGeometry x="414" y="200" width="40" height="20" as="geometry" />
        </mxCell>
        <mxCell id="FqyA_ixjrZ2a1JIf1fLV-39" value="3" style="text;html=1;strokeColor=none;fillColor=none;align=center;verticalAlign=middle;whiteSpace=wrap;rounded=0;" vertex="1" parent="1">
          <mxGeometry x="290" y="200" width="40" height="20" as="geometry" />
        </mxCell>
        <mxCell id="FqyA_ixjrZ2a1JIf1fLV-40" value="0" style="text;html=1;strokeColor=none;fillColor=none;align=center;verticalAlign=middle;whiteSpace=wrap;rounded=0;" vertex="1" parent="1">
          <mxGeometry x="540" y="200" width="40" height="20" as="geometry" />
        </mxCell>
      </root>
    </mxGraphModel>
  </diagram>
</mxfile>
